<?xml version="1.0" encoding="UTF-8"?>
<!DOCTYPE svg PUBLIC "-//W3C//DTD SVG 1.1//EN" "http://www.w3.org/Graphics/SVG/1.1/DTD/svg11.dtd">
<svg xmlns="http://www.w3.org/2000/svg" version="1.1" width="500px" height="500px" style="shape-rendering:geometricPrecision; text-rendering:geometricPrecision; image-rendering:optimizeQuality; fill-rule:evenodd; clip-rule:evenodd" xmlns:xlink="http://www.w3.org/1999/xlink">
<g><path style="opacity:0.004" fill="#000000" d="M 218.5,3.5 C 219.833,4.16667 219.833,4.16667 218.5,3.5 Z"/></g>
<g><path style="opacity:0.004" fill="#000000" d="M 322.5,5.5 C 323.833,6.16667 323.833,6.16667 322.5,5.5 Z"/></g>
<g><path style="opacity:0.004" fill="#000000" d="M 109.5,34.5 C 110.833,35.1667 110.833,35.1667 109.5,34.5 Z"/></g>
<g><path style="opacity:0.004" fill="#000000" d="M 346.5,52.5 C 347.833,53.1667 347.833,53.1667 346.5,52.5 Z"/></g>
<g><path style="opacity:0.004" fill="#000000" d="M 394.5,58.5 C 395.833,59.1667 395.833,59.1667 394.5,58.5 Z"/></g>
<g><path style="opacity:0.004" fill="#000000" d="M 486.5,58.5 C 487.833,59.1667 487.833,59.1667 486.5,58.5 Z"/></g>
<g><path style="opacity:0.004" fill="#000000" d="M 18.5,61.5 C 19.8333,62.1667 19.8333,62.1667 18.5,61.5 Z"/></g>
<g><path style="opacity:0.004" fill="#000000" d="M 246.5,61.5 C 247.833,62.1667 247.833,62.1667 246.5,61.5 Z"/></g>
<g><path style="opacity:0.004" fill="#000000" d="M 188.5,86.5 C 189.833,87.1667 189.833,87.1667 188.5,86.5 Z"/></g>
<g><path style="opacity:0.004" fill="#000000" d="M 495.5,90.5 C 496.833,91.1667 496.833,91.1667 495.5,90.5 Z"/></g>
<g><path style="opacity:0.004" fill="#000000" d="M 180.5,106.5 C 181.833,107.167 181.833,107.167 180.5,106.5 Z"/></g>
<g><path style="opacity:0.004" fill="#000000" d="M 482.5,107.5 C 483.833,108.167 483.833,108.167 482.5,107.5 Z"/></g>
<g><path style="opacity:0.004" fill="#000000" d="M 431.5,108.5 C 432.833,109.167 432.833,109.167 431.5,108.5 Z"/></g>
<g><path style="opacity:0.004" fill="#000000" d="M 149.5,110.5 C 150.833,111.167 150.833,111.167 149.5,110.5 Z"/></g>
<g><path style="opacity:0.004" fill="#000000" d="M 272.5,110.5 C 273.833,111.167 273.833,111.167 272.5,110.5 Z"/></g>
<g><path style="opacity:0.004" fill="#000000" d="M 232.5,112.5 C 233.833,113.167 233.833,113.167 232.5,112.5 Z"/></g>
<g><path style="opacity:0.004" fill="#000000" d="M 212.5,117.5 C 213.833,118.167 213.833,118.167 212.5,117.5 Z"/></g>
<g><path style="opacity:0.004" fill="#000000" d="M 184.5,118.5 C 185.833,119.167 185.833,119.167 184.5,118.5 Z"/></g>
<g><path style="opacity:0.004" fill="#000000" d="M 322.5,131.5 C 323.833,132.167 323.833,132.167 322.5,131.5 Z"/></g>
<g><path style="opacity:0.004" fill="#000000" d="M 310.5,132.5 C 311.833,133.167 311.833,133.167 310.5,132.5 Z"/></g>
<g><path style="opacity:0.004" fill="#000000" d="M 141.5,134.5 C 142.833,135.167 142.833,135.167 141.5,134.5 Z"/></g>
<g><path style="opacity:0.004" fill="#000000" d="M 464.5,134.5 C 465.833,135.167 465.833,135.167 464.5,134.5 Z"/></g>
<g><path style="opacity:0.004" fill="#000000" d="M 243.5,135.5 C 244.833,136.167 244.833,136.167 243.5,135.5 Z"/></g>
<g><path style="opacity:0.004" fill="#000000" d="M 465.5,139.5 C 466.833,140.167 466.833,140.167 465.5,139.5 Z"/></g>
<g><path style="opacity:0.004" fill="#000000" d="M 421.5,143.5 C 422.833,144.167 422.833,144.167 421.5,143.5 Z"/></g>
<g><path style="opacity:0.959" fill="#b0b0b0" d="M 122.5,149.5 C 122.158,148.662 121.492,148.328 120.5,148.5C 122.826,146.67 125.493,145.337 128.5,144.5C 129.696,144.846 129.696,145.346 128.5,146C 126.595,147.421 124.595,148.588 122.5,149.5 Z"/></g>
<g><path style="opacity:0.004" fill="#000000" d="M 183.5,146.5 C 184.833,147.167 184.833,147.167 183.5,146.5 Z"/></g>
<g><path style="opacity:0.004" fill="#000000" d="M 413.5,146.5 C 414.833,147.167 414.833,147.167 413.5,146.5 Z"/></g>
<g><path style="opacity:0.999" fill="#f4f4f4" d="M 120.5,148.5 C 121.492,148.328 122.158,148.662 122.5,149.5C 106.187,163.085 89.3535,176.085 72,188.5C 72.6201,204.667 73.4535,220.833 74.5,237C 74.9054,237.945 75.572,238.612 76.5,239C 126.817,255.772 176.983,272.939 227,290.5C 232.241,332.093 236.741,373.76 240.5,415.5C 240.784,417.415 240.451,419.081 239.5,420.5C 228.224,382.005 217.558,343.339 207.5,304.5C 158.321,288.774 109.321,272.44 60.5,255.5C 58.3333,252.5 56.1667,249.5 54,246.5C 54.1981,230.503 54.6981,214.503 55.5,198.5C 56.4731,196.052 56.8064,193.385 56.5,190.5C 56.1774,186.774 56.5108,183.107 57.5,179.5C 78.5836,168.121 99.5836,157.788 120.5,148.5 Z"/></g>
<g><path style="opacity:0.999" fill="#f4f4f4" d="M 436.5,188.5 C 436.19,191.713 436.523,194.713 437.5,197.5C 438.738,213.812 439.238,230.146 439,246.5C 436.833,249.5 434.667,252.5 432.5,255.5C 383.618,272.072 334.784,288.738 286,305.5C 275.003,343.828 264.169,382.162 253.5,420.5C 252.566,419.432 252.232,418.099 252.5,416.5C 256.43,374.443 260.93,332.443 266,290.5C 311.431,274.801 356.931,259.301 402.5,244C 408.268,241.865 413.768,239.365 419,236.5C 420.094,220.493 420.76,204.493 421,188.5C 401.744,174.121 382.577,159.621 363.5,145C 364.5,144.333 365.5,144.333 366.5,145C 389.828,155.824 412.828,167.324 435.5,179.5C 436.484,182.428 436.817,185.428 436.5,188.5 Z"/></g>
<g><path style="opacity:0.004" fill="#000000" d="M 221.5,151.5 C 222.833,152.167 222.833,152.167 221.5,151.5 Z"/></g>
<g><path style="opacity:0.004" fill="#000000" d="M 13.5,157.5 C 14.8333,158.167 14.8333,158.167 13.5,157.5 Z"/></g>
<g><path style="opacity:0.004" fill="#000000" d="M 301.5,161.5 C 302.833,162.167 302.833,162.167 301.5,161.5 Z"/></g>
<g><path style="opacity:0.004" fill="#000000" d="M 50.5,169.5 C 51.8333,170.167 51.8333,170.167 50.5,169.5 Z"/></g>
<g><path style="opacity:0.004" fill="#000000" d="M 7.5,171.5 C 8.83333,172.167 8.83333,172.167 7.5,171.5 Z"/></g>
<g><path style="opacity:0.004" fill="#000000" d="M 180.5,171.5 C 181.833,172.167 181.833,172.167 180.5,171.5 Z"/></g>
<g><path style="opacity:0.004" fill="#000000" d="M 206.5,179.5 C 207.833,180.167 207.833,180.167 206.5,179.5 Z"/></g>
<g><path style="opacity:0.004" fill="#000000" d="M 444.5,179.5 C 445.833,180.167 445.833,180.167 444.5,179.5 Z"/></g>
<g><path style="opacity:0.004" fill="#000000" d="M 451.5,193.5 C 452.833,194.167 452.833,194.167 451.5,193.5 Z"/></g>
<g><path style="opacity:0.722" fill="#7e7e7e" d="M 436.5,188.5 C 437.82,191.414 438.153,194.414 437.5,197.5C 436.523,194.713 436.19,191.713 436.5,188.5 Z"/></g>
<g><path style="opacity:0.439" fill="#636363" d="M 56.5,190.5 C 56.8064,193.385 56.4731,196.052 55.5,198.5C 55.0618,198.565 54.7284,198.399 54.5,198C 55.1233,195.393 55.79,192.893 56.5,190.5 Z"/></g>
<g><path style="opacity:0.004" fill="#000000" d="M 441.5,198.5 C 442.833,199.167 442.833,199.167 441.5,198.5 Z"/></g>
<g><path style="opacity:0.004" fill="#000000" d="M 328.5,200.5 C 329.833,201.167 329.833,201.167 328.5,200.5 Z"/></g>
<g><path style="opacity:0.004" fill="#000000" d="M 265.5,202.5 C 266.833,203.167 266.833,203.167 265.5,202.5 Z"/></g>
<g><path style="opacity:0.004" fill="#000000" d="M 412.5,211.5 C 413.833,212.167 413.833,212.167 412.5,211.5 Z"/></g>
<g><path style="opacity:0.004" fill="#000000" d="M 465.5,216.5 C 466.833,217.167 466.833,217.167 465.5,216.5 Z"/></g>
<g><path style="opacity:0.004" fill="#000000" d="M 336.5,224.5 C 337.833,225.167 337.833,225.167 336.5,224.5 Z"/></g>
<g><path style="opacity:0.004" fill="#000000" d="M 444.5,228.5 C 445.833,229.167 445.833,229.167 444.5,228.5 Z"/></g>
<g><path style="opacity:0.004" fill="#000000" d="M 246.5,240.5 C 247.833,241.167 247.833,241.167 246.5,240.5 Z"/></g>
<g><path style="opacity:0.004" fill="#000000" d="M 455.5,246.5 C 456.833,247.167 456.833,247.167 455.5,246.5 Z"/></g>
<g><path style="opacity:0.004" fill="#000000" d="M 164.5,256.5 C 165.833,257.167 165.833,257.167 164.5,256.5 Z"/></g>
<g><path style="opacity:0.004" fill="#000000" d="M 301.5,264.5 C 302.833,265.167 302.833,265.167 301.5,264.5 Z"/></g>
<g><path style="opacity:0.004" fill="#000000" d="M 425.5,266.5 C 426.833,267.167 426.833,267.167 425.5,266.5 Z"/></g>
<g><path style="opacity:0.004" fill="#000000" d="M 249.5,267.5 C 250.833,268.167 250.833,268.167 249.5,267.5 Z"/></g>
<g><path style="opacity:0.016" fill="#3f403f" d="M 385.5,293.5 C 386.833,294.167 386.833,294.167 385.5,293.5 Z"/></g>
<g><path style="opacity:0.998" fill="#eeeeee" d="M 107.5,295.5 C 107.917,294.876 108.584,294.543 109.5,294.5C 136.681,301.783 163.347,310.45 189.5,320.5C 188.505,334.952 186.672,349.286 184,363.5C 181.875,352.37 180.042,341.203 178.5,330C 178.833,329.667 179.167,329.333 179.5,329C 166.252,324.69 152.919,321.023 139.5,318C 146.566,328.667 152.566,339.5 157.5,350.5C 139.219,333.583 122.553,315.25 107.5,295.5 Z"/></g>
<g><path style="opacity:0.998" fill="#ededed" d="M 385.5,294.5 C 370.622,314.581 354.122,333.248 336,350.5C 340.606,339.13 346.439,328.296 353.5,318C 340.165,321.336 326.831,325.003 313.5,329C 313.833,329.333 314.167,329.667 314.5,330C 313.55,336.434 312.716,342.934 312,349.5C 311.636,354.322 310.636,358.988 309,363.5C 306.328,349.283 304.494,334.949 303.5,320.5C 330.233,310.034 357.566,301.367 385.5,294.5 Z"/></g>
<g><path style="opacity:0.004" fill="#000000" d="M 468.5,303.5 C 469.833,304.167 469.833,304.167 468.5,303.5 Z"/></g>
<g><path style="opacity:0.004" fill="#000000" d="M 389.5,307.5 C 390.833,308.167 390.833,308.167 389.5,307.5 Z"/></g>
<g><path style="opacity:0.004" fill="#000000" d="M 471.5,310.5 C 472.833,311.167 472.833,311.167 471.5,310.5 Z"/></g>
<g><path style="opacity:0.004" fill="#000000" d="M 237.5,316.5 C 238.833,317.167 238.833,317.167 237.5,316.5 Z"/></g>
<g><path style="opacity:0.004" fill="#000000" d="M 335.5,329.5 C 336.833,330.167 336.833,330.167 335.5,329.5 Z"/></g>
<g><path style="opacity:0.004" fill="#000000" d="M 300.5,330.5 C 301.833,331.167 301.833,331.167 300.5,330.5 Z"/></g>
<g><path style="opacity:0.004" fill="#000000" d="M 398.5,346.5 C 399.833,347.167 399.833,347.167 398.5,346.5 Z"/></g>
<g><path style="opacity:0.004" fill="#000000" d="M 173.5,357.5 C 174.833,358.167 174.833,358.167 173.5,357.5 Z"/></g>
<g><path style="opacity:0.004" fill="#000000" d="M 413.5,359.5 C 414.833,360.167 414.833,360.167 413.5,359.5 Z"/></g>
<g><path style="opacity:0.004" fill="#000000" d="M 132.5,363.5 C 133.833,364.167 133.833,364.167 132.5,363.5 Z"/></g>
<g><path style="opacity:0.004" fill="#000000" d="M 288.5,367.5 C 289.833,368.167 289.833,368.167 288.5,367.5 Z"/></g>
<g><path style="opacity:0.004" fill="#000000" d="M 363.5,371.5 C 364.833,372.167 364.833,372.167 363.5,371.5 Z"/></g>
<g><path style="opacity:0.004" fill="#000000" d="M 210.5,387.5 C 211.833,388.167 211.833,388.167 210.5,387.5 Z"/></g>
<g><path style="opacity:0.004" fill="#000000" d="M 310.5,389.5 C 311.833,390.167 311.833,390.167 310.5,389.5 Z"/></g>
<g><path style="opacity:0.004" fill="#000000" d="M 194.5,403.5 C 195.833,404.167 195.833,404.167 194.5,403.5 Z"/></g>
<g><path style="opacity:0.004" fill="#000000" d="M 279.5,404.5 C 280.833,405.167 280.833,405.167 279.5,404.5 Z"/></g>
<g><path style="opacity:0.867" fill="#9e9e9e" d="M 252.5,416.5 C 252.232,418.099 252.566,419.432 253.5,420.5C 252.978,423.568 252.145,426.568 251,429.5C 250.628,424.957 251.128,420.623 252.5,416.5 Z"/></g>
<g><path style="opacity:0.004" fill="#000000" d="M 211.5,422.5 C 212.833,423.167 212.833,423.167 211.5,422.5 Z"/></g>
<g><path style="opacity:0.941" fill="#959595" d="M 240.5,415.5 C 241.807,419.969 242.307,424.635 242,429.5C 240.855,426.568 240.022,423.568 239.5,420.5C 240.451,419.081 240.784,417.415 240.5,415.5 Z"/></g>
<g><path style="opacity:0.004" fill="#000000" d="M 86.5,428.5 C 87.8333,429.167 87.8333,429.167 86.5,428.5 Z"/></g>
<g><path style="opacity:0.004" fill="#000000" d="M 139.5,431.5 C 140.833,432.167 140.833,432.167 139.5,431.5 Z"/></g>
<g><path style="opacity:0.004" fill="#000000" d="M 357.5,433.5 C 358.833,434.167 358.833,434.167 357.5,433.5 Z"/></g>
<g><path style="opacity:0.004" fill="#000000" d="M 123.5,438.5 C 124.833,439.167 124.833,439.167 123.5,438.5 Z"/></g>
<g><path style="opacity:0.004" fill="#000000" d="M 355.5,460.5 C 356.833,461.167 356.833,461.167 355.5,460.5 Z"/></g>
<g><path style="opacity:0.004" fill="#000000" d="M 60.5,465.5 C 61.8333,466.167 61.8333,466.167 60.5,465.5 Z"/></g>
<g><path style="opacity:0.004" fill="#000000" d="M 21.5,470.5 C 22.8333,471.167 22.8333,471.167 21.5,470.5 Z"/></g>
<g><path style="opacity:0.004" fill="#000000" d="M 382.5,473.5 C 383.833,474.167 383.833,474.167 382.5,473.5 Z"/></g>
<g><path style="opacity:0.004" fill="#000000" d="M 256.5,474.5 C 257.833,475.167 257.833,475.167 256.5,474.5 Z"/></g>
<g><path style="opacity:0.004" fill="#000000" d="M 427.5,479.5 C 428.833,480.167 428.833,480.167 427.5,479.5 Z"/></g>
<g><path style="opacity:0.004" fill="#000000" d="M 157.5,495.5 C 158.833,496.167 158.833,496.167 157.5,495.5 Z"/></g>
<g><path style="opacity:0.004" fill="#000000" d="M 467.5,495.5 C 468.833,496.167 468.833,496.167 467.5,495.5 Z"/></g>
</svg>
